<svg width="16" height="16" viewBox="0 0 16 16" fill="none" xmlns="http://www.w3.org/2000/svg">
<path d="M12.1657 0.5H3.83429C1.99282 0.5 0.5 1.99282 0.5 3.83429V12.1657C0.5 14.0072 1.99282 15.5 3.83429 15.5H12.1657C14.0072 15.5 15.5 14.0072 15.5 12.1657V3.83429C15.5 1.99282 14.0072 0.5 12.1657 0.5Z" fill="#705F5F"/>
<path fill-rule="evenodd" clip-rule="evenodd" d="M5.74806 6.9502C5.74806 7.81245 4.74796 9.08202 3.70642 9.56602L3.69678 9.56237C3.89985 10.1216 4.20942 10.6299 4.59667 11.067L4.60003 11.0648C5.4226 10.6393 6.07874 9.82109 6.58621 8.85384C6.14235 8.37166 5.74806 7.39787 5.74806 6.9502Z" fill="#FEDA00"/>
<path fill-rule="evenodd" clip-rule="evenodd" d="M8.00051 6.9502C7.97351 8.24412 6.97336 10.8399 5.77722 12.0023C6.43483 12.3678 7.19269 12.5771 8.00051 12.5775C8.80754 12.5771 9.56465 12.3678 10.2227 12.0023C9.02651 10.8399 8.02676 8.24412 8.00051 6.9502Z" fill="#FEDA00"/>
<path fill-rule="evenodd" clip-rule="evenodd" d="M10.2522 6.9502C10.2522 7.81245 11.2519 9.08202 12.2938 9.56602L12.3038 9.56237C12.1011 10.1216 11.7908 10.6299 11.404 11.067L11.3999 11.0648C10.5777 10.6393 9.92153 9.82109 9.41406 8.85384C9.85828 8.37166 10.2522 7.39787 10.2522 6.9502Z" fill="#FEDA00"/>
<path fill-rule="evenodd" clip-rule="evenodd" d="M7.02781 7.88765C7.56706 6.53958 7.86516 5.04983 7.96466 4.00154C7.96949 3.94815 7.98684 3.60586 7.98684 3.42236C7.1872 3.42636 6.43416 3.63311 5.76099 4.00665C5.76838 4.25626 5.78874 4.47318 5.8002 4.56622C5.93002 5.63447 6.31174 7.42872 7.02781 7.88765Z" fill="#FEDA00"/>
<path fill-rule="evenodd" clip-rule="evenodd" d="M5.71013 4.56517C5.71827 4.4856 5.72863 4.26903 5.73491 4.02124C4.35531 4.81081 3.42249 6.2962 3.42249 7.99924C3.42249 8.1482 3.43506 8.41528 3.44838 8.56135C4.96449 7.9291 5.54038 6.23953 5.71013 4.56517Z" fill="#FEDA00"/>
<path fill-rule="evenodd" clip-rule="evenodd" d="M8.97249 7.88765C8.4336 6.53958 8.13474 5.04983 8.03599 4.00154C8.03045 3.94815 8.01306 3.60586 8.01306 3.42236C8.8127 3.42636 9.56653 3.63311 10.2393 4.00665C10.2319 4.25626 10.2119 4.47318 10.2001 4.56622C10.0703 5.63447 9.68856 7.42872 8.97249 7.88765Z" fill="#FEDA00"/>
<path fill-rule="evenodd" clip-rule="evenodd" d="M10.2901 4.56517C10.2824 4.4856 10.2713 4.26903 10.2661 4.02124C11.645 4.81081 12.5774 6.2962 12.5774 7.99924C12.5774 8.1482 12.5656 8.41528 12.5523 8.56135C11.0358 7.9291 10.4599 6.23953 10.2901 4.56517Z" fill="#FEDA00"/>
</svg>
