<svg width="16" height="16" viewBox="0 0 16 16" fill="none" xmlns="http://www.w3.org/2000/svg">
<path d="M12.2857 0.5H3.71429C1.93908 0.5 0.5 1.93908 0.5 3.71429V12.2857C0.5 14.0609 1.93908 15.5 3.71429 15.5H12.2857C14.0609 15.5 15.5 14.0609 15.5 12.2857V3.71429C15.5 1.93908 14.0609 0.5 12.2857 0.5Z" fill="url(#paint0_linear_2915_1395)"/>
<path fill-rule="evenodd" clip-rule="evenodd" d="M10.3817 10.4585C9.94187 10.8083 9.47698 11.1229 9.01509 11.4631C9.01509 11.4631 8.74862 11.6589 8.63948 11.7347C8.6182 11.7355 8.5883 11.7411 8.57523 11.7213C8.58344 11.3214 8.45862 10.8423 8.7688 10.5561C9.22362 10.025 9.70044 9.51413 10.0932 8.94759C10.0932 8.94759 10.4991 8.36723 10.6916 8.0862C10.7521 8.09963 10.7771 8.17213 10.7835 8.22034C10.9909 8.96702 11.0597 9.71295 10.3817 10.4585ZM8.00084 10.2459C7.99223 10.2459 7.97766 10.2384 7.96419 10.2234C7.37898 9.52834 6.71302 8.74581 6.13041 8.04734C6.02427 7.87131 5.91662 7.70091 5.90469 7.47481C5.89644 7.29506 5.88748 7.13248 6.03362 6.90973C6.03362 6.90973 6.13077 6.76923 6.15805 6.72777C6.15805 6.72777 7.3558 5.04716 7.98212 4.25041C7.98212 4.25041 7.99037 4.23995 8.00084 4.23995C8.01016 4.23995 8.01766 4.25041 8.01766 4.25041C8.64698 5.04716 9.84209 6.72777 9.84209 6.72777C9.87123 6.76923 9.96691 6.90973 9.96691 6.90973C10.1127 7.13248 10.1011 7.29506 10.0962 7.47481C10.0832 7.70091 9.97512 7.87131 9.87123 8.04734C9.28677 8.74581 8.62455 9.52834 8.03669 10.2234C8.02323 10.2384 8.00719 10.2459 8.00084 10.2459ZM7.42119 11.7213C7.41037 11.7411 7.38084 11.7355 7.35616 11.7347C7.24855 11.6589 6.98023 11.4631 6.98023 11.4631C6.5198 11.1229 6.05677 10.8083 5.6158 10.4585C4.93827 9.71295 5.00666 8.96702 5.21555 8.22034C5.2208 8.17213 5.24509 8.09963 5.30712 8.0862C5.49884 8.36723 5.90319 8.94759 5.90319 8.94759C6.29744 9.51413 6.77505 10.025 7.22837 10.5561C7.53966 10.8423 7.41373 11.3214 7.42119 11.7213ZM11.6583 8.24463C11.5668 7.89709 11.4337 7.63698 11.2192 7.24273C11.1467 7.13248 11.0585 7.00466 10.9771 6.87238C10.0387 5.48441 8.19141 3.06166 8.02323 2.90545C8.02323 2.90545 8.01166 2.89648 8.00084 2.89648C7.99037 2.89648 7.97877 2.90545 7.97877 2.90545C7.80948 3.06166 5.96073 5.48441 5.02609 6.87238C4.94387 7.00466 4.8553 7.13248 4.78391 7.24273C4.56716 7.63698 4.43412 7.89709 4.34259 8.24463C4.22634 8.74991 4.22262 9.37624 4.32652 9.8912C4.42066 10.3445 4.85044 10.8061 5.28319 11.1521L5.94505 11.6757C5.94505 11.6757 7.79191 13.0087 7.96419 13.0936C7.96419 13.0936 7.98027 13.1036 8.00084 13.1036C8.02062 13.1036 8.03669 13.0936 8.03669 13.0936C8.20937 13.0087 10.057 11.6757 10.057 11.6757L10.7166 11.1521C11.1527 10.8061 11.5798 10.3445 11.6752 9.8912C11.7779 9.37624 11.7723 8.74991 11.6583 8.24463Z" fill="white"/>
<defs>
<linearGradient id="paint0_linear_2915_1395" x1="8" y1="0.5" x2="8" y2="15.5" gradientUnits="userSpaceOnUse">
<stop stop-color="#1E3CA1"/>
<stop offset="1" stop-color="#001B73"/>
</linearGradient>
</defs>
</svg>
