<svg width="16" height="16" viewBox="0 0 16 16" fill="none" xmlns="http://www.w3.org/2000/svg">
<path d="M12.3295 0.41333H3.90177C2.03901 0.41333 0.528931 1.92341 0.528931 3.78616V12.2139C0.528931 14.0767 2.03901 15.5868 3.90177 15.5868H12.3295C14.1923 15.5868 15.7024 14.0767 15.7024 12.2139V3.78616C15.7024 1.92341 14.1923 0.41333 12.3295 0.41333Z" fill="#019A3F"/>
<path d="M3.88128 4.91602H2.42297V11.1488H3.88128V4.91602Z" fill="white"/>
<path d="M13.7358 8.69228H12.1873V7.1438H11.2794V8.69228H9.73096V9.60016H11.2794V11.1486H12.1873V9.60016H13.7358V8.69228Z" fill="white"/>
<path d="M6.53585 8.00641L8.95207 4.91602H7.63007C7.46616 4.91598 7.30438 4.95326 7.15702 5.02501C7.00965 5.09676 6.88054 5.2011 6.77945 5.33011L5.61218 6.82462L6.53585 8.00641Z" fill="#CCCCCC"/>
<path d="M8.99289 11.1487H7.67023C7.50625 11.1484 7.34451 11.1108 7.19722 11.0387C7.04997 10.9666 6.92106 10.8619 6.82027 10.7326L4.68848 8.0056L5.61019 6.82056L8.99289 11.1487Z" fill="white"/>
</svg>
