<svg width="16" height="16" viewBox="0 0 16 16" fill="none" xmlns="http://www.w3.org/2000/svg">
<mask id="mask0_2915_1394" style="mask-type:alpha" maskUnits="userSpaceOnUse" x="0" y="0" width="16" height="16">
<path d="M0.5 0.5H15.5V15.5003H0.5V0.5Z" fill="white"/>
</mask>
<g mask="url(#mask0_2915_1394)">
<path fill-rule="evenodd" clip-rule="evenodd" d="M8.18721 15.5004H7.81279C3.77371 15.5004 0.5 12.2263 0.5 8.18721V7.81314C0.5 3.77407 3.77371 0.5 7.81279 0.5H8.18721C12.2263 0.5 15.5 3.77407 15.5 7.81314V8.18721C15.5 12.2263 12.2263 15.5004 8.18721 15.5004Z" fill="#5BB8E8"/>
</g>
<path fill-rule="evenodd" clip-rule="evenodd" d="M9.53102 11.1701C9.45777 11.2527 9.43945 11.527 9.43945 11.527C9.43945 11.527 9.2653 12.6616 7.8198 12.8993C7.8198 12.8993 8.64345 13.1373 9.35688 12.5611C10.0707 11.9845 10.1988 11.3439 10.1073 10.6667L9.79598 11.033C9.79598 11.033 9.60388 11.0879 9.53102 11.1701ZM12.7756 9.30716L12.5951 9.36734C12.5951 9.36734 12.4934 10.1058 12.1511 10.7964C11.8084 11.4874 11.5924 11.7632 11.5083 11.7815C11.4238 11.7994 11.4063 11.7935 11.388 11.5954C11.3701 11.3969 11.4664 11.1391 11.6645 11.0427C11.6645 11.0427 11.6881 10.8566 11.6406 10.7426C11.5924 10.6282 11.5864 10.376 11.6343 10.2202C11.6824 10.064 11.7363 10.0097 11.7363 10.0097C11.7363 10.0097 11.6223 9.82963 11.5864 9.49927C11.5502 9.16891 11.6645 8.88077 11.6645 8.88077C11.6645 8.88077 11.5262 8.80863 11.4664 8.69431C11.4063 8.58031 11.3338 8.37627 11.2441 8.29816C11.154 8.22006 11.0696 8.22602 11.0397 8.26827C11.0397 8.26827 10.9799 8.23202 10.9436 8.19613C10.9078 8.15988 10.8779 8.11206 10.8054 8.11802C10.7336 8.12402 10.6794 8.20809 10.6794 8.20809C10.6794 8.20809 10.5594 8.20213 10.4933 8.1722C10.4272 8.14195 10.3192 8.13595 10.2769 8.18416C10.2351 8.23202 10.0729 8.25031 10.0729 8.25031C10.0729 8.25031 10.0187 8.20213 9.95891 8.16588C9.89873 8.12999 9.83859 8.11802 9.81466 8.16588C9.79038 8.21406 9.84455 8.37027 9.84455 8.37027C9.84455 8.37027 10.3431 8.77238 10.4032 9.41516C10.4631 10.058 10.2889 10.274 10.2889 10.274C10.2889 10.274 10.6312 11.1148 10.3132 11.8955C9.99477 12.6762 9.13563 13.1448 8.6498 13.199C8.16323 13.2528 7.68863 13.1388 7.40609 12.9288C7.40609 12.9288 6.60784 13.0125 6.09734 12.6104C5.58648 12.2079 5.40638 11.7755 5.47252 11.3188C5.53827 10.8626 5.83277 10.7845 5.97105 10.7605C6.1093 10.7366 6.28348 10.8028 6.29541 10.9466C6.30738 11.0909 6.2173 11.1208 6.07305 11.1511C5.9288 11.1809 5.75505 11.3069 5.79055 11.6914C5.8268 12.0756 6.04316 12.4363 6.78198 12.6523L6.78759 12.5323C6.78759 12.5323 6.63138 12.4363 6.57759 12.088C6.52338 11.7393 6.7278 11.4512 6.93184 11.3611C7.13627 11.271 7.30405 11.3252 7.33434 11.4751C7.36423 11.6253 7.19605 11.6914 7.09405 11.6914C6.99202 11.6914 6.82384 11.8054 6.80555 11.9736C6.78759 12.1418 6.99798 12.4901 7.19009 12.5443C7.38216 12.5981 7.78466 12.5921 7.99505 12.5622C8.20509 12.5323 8.84788 12.2801 9.11805 11.4269C9.11805 11.4269 8.99213 11.4033 8.87177 11.4213C8.75145 11.4392 8.55938 11.4751 8.42109 11.4392C8.2832 11.4033 8.1752 11.2108 8.1752 11.2108C8.1752 11.2108 7.89266 11.1989 7.75477 11.0128C7.61648 10.8267 7.76673 10.6223 7.76673 10.6223C7.76673 10.6223 7.77905 10.9227 8.02495 10.9108C8.27123 10.8985 8.22302 10.7306 8.22302 10.7306C8.22302 10.7306 8.30748 10.8207 8.54741 10.8207C8.7877 10.8207 8.93795 10.5864 8.94391 10.4242C8.94391 10.4242 8.71559 10.4421 8.66177 10.2983C8.6072 10.154 8.70363 10.052 8.70363 10.052C8.70363 10.052 8.48763 10.064 8.48763 9.88381C8.48763 9.7037 8.77573 9.72163 8.82359 9.78738C8.87177 9.85356 8.9738 9.78141 9.06388 9.61323C9.15395 9.44545 9.16591 9.43349 9.10013 9.32513C9.03398 9.21713 8.99213 9.25895 8.93159 9.27727C8.87177 9.2952 8.78173 9.33706 8.73948 9.27092C8.69763 9.20516 8.82359 9.07884 8.70363 9.01306C8.58327 8.94691 8.45138 9.08481 8.37327 9.15095C8.29516 9.21713 8.2832 9.31913 8.48127 9.37331C8.48127 9.37331 8.42745 9.49327 8.30748 9.46938C8.18677 9.44545 8.15127 9.41516 8.09073 9.42713C8.03095 9.43949 7.98273 9.52316 8.01298 9.55345C8.04327 9.58334 8.10905 9.65549 8.07316 9.76348C8.03691 9.87149 7.97077 9.89577 7.97077 9.89577C7.97077 9.89577 7.88705 9.72759 7.83884 9.70966C7.79063 9.69134 7.74841 9.76945 7.64638 9.75748C7.54473 9.74552 7.5567 9.72163 7.46663 9.72163C7.3762 9.72163 7.28613 9.78141 7.28613 9.78141C7.28613 9.78141 7.10002 9.78141 7.03984 9.72163C7.03984 9.72163 6.9737 9.81766 6.92588 9.87149C6.87766 9.92566 6.80591 10.0456 6.78198 10.1058C6.7577 10.1659 6.78759 10.2501 6.78759 10.2501C6.78759 10.2501 6.6557 10.1899 6.64334 10.0699C6.64334 10.0699 6.52973 10.0938 6.53534 10.16C6.53534 10.16 6.46959 10.0456 6.47555 9.96191C6.47555 9.96191 6.37352 9.95556 6.36716 10.0097C6.36716 10.0097 6.31934 9.93163 6.34327 9.8117C6.36716 9.69134 6.66763 9.37331 6.8657 9.36138C7.06377 9.34902 7.6348 9.34306 7.6348 9.34306C7.6348 9.34306 8.03691 9.12106 8.09073 9.07284C8.14491 9.02502 8.12698 8.97681 8.03691 8.97084C7.94684 8.96484 7.86873 8.96484 7.80895 8.9047C7.74841 8.84452 7.77905 8.83256 7.70095 8.7907C7.62284 8.74884 7.51448 8.63449 7.4483 8.63449C7.38216 8.63449 7.33434 8.69466 7.32798 8.73652C7.32238 8.77874 7.32238 8.88674 7.28613 8.92263C7.24988 8.95888 7.21438 8.9047 7.17216 8.87481C7.12991 8.84452 7.0518 8.89274 7.05816 8.95291C7.06377 9.01306 7.16616 9.1147 7.14823 9.1872C7.14823 9.1872 7.0163 9.12106 6.9382 9.1147C6.86009 9.10909 6.73977 9.06688 6.66763 9.06688C6.59588 9.06688 6.43334 9.20516 6.35523 9.20516C6.27713 9.20516 6.22291 9.12706 6.20538 9.13302C6.18741 9.13902 6.1448 9.18124 6.09102 9.21113C6.0368 9.24102 6.00095 9.23506 5.94677 9.23506C5.89295 9.23506 5.8507 9.28327 5.8507 9.31913C5.8507 9.35538 5.78495 9.42116 5.78495 9.42116C5.78495 9.42116 5.77259 9.45106 5.73673 9.36734L5.67695 9.43349C5.67695 9.43349 5.6463 9.36734 5.62873 9.3012C5.61077 9.23506 5.62273 9.18088 5.62273 9.18088L5.54463 9.21713C5.54463 9.21713 5.49645 9.07284 5.56855 9.01306C5.6407 8.95291 5.88059 8.76641 5.94116 8.73652C6.0013 8.70663 6.18741 8.74884 6.31337 8.75484C6.43966 8.76081 6.7637 8.73652 6.7637 8.73652C6.7637 8.73652 7.14188 8.58031 7.17813 8.52052C7.21438 8.46034 7.20802 8.45438 7.10602 8.42409C7.00398 8.3942 6.96809 8.23799 6.90195 8.1782C6.8358 8.11802 6.77563 8.10606 6.70388 8.03991C6.63138 7.97377 6.58355 7.81195 6.58355 7.81195C6.58355 7.81195 6.47555 7.8897 6.36716 7.93156C6.25916 7.97377 6.12727 7.94984 6.12727 7.94984C6.12727 7.94984 6.10295 8.09409 6.01291 8.14791C5.9232 8.20213 5.7427 8.23202 5.7427 8.23202C5.7427 8.23202 5.53866 8.43009 5.32827 8.48427C5.11823 8.53845 4.92616 8.48427 4.92616 8.48427C4.92616 8.48427 4.89627 8.66438 4.81816 8.74249C4.74005 8.82059 4.5958 8.83256 4.57748 8.98281C4.55955 9.13302 4.54759 9.26495 4.54759 9.26495L4.43359 9.35538H4.31327C4.31327 9.35538 4.31963 9.55345 4.28338 9.71563C4.24713 9.87784 4.15705 10.04 4.15705 10.04C4.15705 10.04 4.18134 10.2799 4.16341 10.4481C4.14509 10.6163 4.12116 10.7247 4.13913 10.7844C4.15705 10.8446 4.28338 11.0188 4.29534 11.0487C4.30727 11.079 4.28934 11.1387 4.33159 11.2408C4.37345 11.3432 4.46948 11.4093 4.42163 11.493C4.37345 11.5771 4.28338 11.5472 4.15705 11.4269C4.03113 11.3069 3.74298 10.8566 3.59273 10.3823C3.44252 9.90774 3.35845 9.28327 3.35845 9.28327C3.35845 9.28327 3.22652 9.2952 3.16038 9.15695C3.09423 9.01906 3.1002 8.53209 3.13048 8.30413C3.16038 8.07616 3.25045 7.84184 3.25045 7.84184C3.25045 7.84184 3.23248 7.79963 3.14841 7.78766C3.06395 7.7757 3.0703 7.79366 3.06395 7.53541C3.05834 7.27716 3.28034 6.43634 3.5027 6.22631C3.5027 6.22631 3.44888 6.23827 3.42459 6.19602C3.40066 6.15416 3.53259 5.86606 3.69477 5.61941C3.85695 5.37349 4.31327 4.93477 4.63166 4.83274C4.95005 4.7307 5.30434 4.77891 5.49645 4.94113C5.68888 5.10331 5.84509 5.32527 6.01927 5.40338C6.19302 5.48149 6.44527 5.40938 6.48713 5.38545C6.52973 5.36152 6.62577 5.27109 6.62577 5.19934C6.62577 5.12724 6.81188 4.98895 6.81188 4.98895C6.81188 4.98895 6.78759 4.77295 6.8358 4.64066C6.88402 4.50834 6.9737 4.53263 7.00995 4.45456C7.0462 4.37645 7.0518 4.20827 7.17216 4.16041C7.17216 4.16041 6.93184 4.19631 6.7637 4.05206C6.59588 3.90781 6.57759 3.75195 6.68595 3.67349C6.79395 3.59538 6.91991 3.65591 6.92588 3.72766C6.93184 3.79981 6.9438 3.90181 6.9438 3.90181C6.9438 3.90181 6.98005 3.97395 7.07013 3.97991C7.1602 3.98591 7.21998 3.87191 7.21998 3.87191C7.21998 3.87191 7.03388 3.79981 7.00995 3.6077C6.98566 3.41563 7.11198 3.36145 7.18409 3.36145C7.25623 3.36145 7.32798 3.45749 7.27416 3.59538C7.27416 3.59538 7.25623 3.68581 7.32798 3.69777C7.40048 3.70974 7.47859 3.67349 7.47859 3.67349C7.47859 3.67349 7.76073 3.3917 8.10305 3.37938C8.44538 3.36741 8.67373 3.48141 8.74548 3.51766C8.81759 3.55352 8.99213 3.70377 8.99213 3.70377C8.99213 3.70377 9.19616 3.61966 9.41816 3.72766C9.64052 3.83606 9.62255 3.96199 9.6943 3.98591C9.6943 3.98591 9.55641 4.03413 9.46038 4.04009C9.36434 4.04606 9.4002 4.16006 9.20813 4.19631C9.01566 4.2322 8.87177 4.2262 8.87177 4.2262C8.87177 4.2262 8.80602 4.37045 8.66738 4.38838C8.52948 4.40634 8.43941 4.40634 8.24695 4.61074C8.05484 4.81481 7.96516 5.04913 8.0668 5.25316C8.16884 5.4572 8.49359 5.7517 8.8957 5.76366C9.2982 5.77559 9.65845 5.51774 9.85052 5.33724C10.043 5.15713 10.3132 4.86302 10.7575 4.86899C11.2019 4.87495 11.5442 5.09731 11.8084 5.27709C12.073 5.4572 12.4153 5.88995 12.4153 5.88995L12.289 6.03384C12.289 6.03384 12.6915 6.57459 12.8537 7.12095C13.0155 7.66734 12.9493 7.86577 12.9493 7.86577L12.8238 7.95584C12.8238 7.95584 12.9437 8.84452 12.7756 9.30716Z" fill="white"/>
</svg>
